<svg preserveAspectRatio="none" width="100%" height="100%" overflow="visible" style="display: block;" viewBox="0 0 24.2549 24.2549" fill="none" xmlns="http://www.w3.org/2000/svg">
<g id="Logo Mark">
<g id="Group">
<path id="Vector" d="M19.939 16.0154L24.1657 13.5721C24.2192 13.0905 24.2549 12.609 24.2549 12.1275C24.2549 8.40005 22.5785 5.08283 19.939 2.85352V16.0154Z" fill="var(--fill-0, white)"/>
<path id="Vector_2" d="M11.5924 3.40639L7.36561 0.980898C3.65603 2.55033 0.909518 5.92106 0.196138 9.98733L11.5924 3.40639Z" fill="var(--fill-0, white)"/>
<path id="Vector_3" d="M12.6625 20.8485L16.8893 23.2919C20.581 21.7046 23.3454 18.3339 24.0588 14.2676L12.6625 20.8485Z" fill="var(--fill-0, white)"/>
<path id="Vector_4" d="M19.404 7.31215V2.42549C17.3709 0.90956 14.8562 0 12.1275 0C10.6829 0 9.29182 0.249683 8.00774 0.71338L19.404 7.31215Z" fill="var(--fill-0, white)"/>
<path id="Vector_5" d="M4.85101 16.9428V21.8294C6.88414 23.3454 9.39881 24.2549 12.1275 24.2549C13.5721 24.2549 14.9632 24.0052 16.2473 23.5416L4.85101 16.9428Z" fill="var(--fill-0, white)"/>
<path id="Vector_6" d="M4.31595 8.23954L0.0891725 10.6829C0.035669 11.1466 0 11.6281 0 12.1275C0 15.8549 1.67644 19.1721 4.31595 21.4014V8.23954Z" fill="var(--fill-0, white)"/>
</g>
<path id="Vector_7" d="M12.1275 3.72741L4.85101 7.91852V16.3186L12.1275 20.5275L19.404 16.3186V7.91852L12.1275 3.72741ZM19.0473 15.9084L15.9441 14.1249V9.91599L12.3058 7.82935V4.24462L19.0473 8.13254V15.9084ZM12.1275 8.13254L15.409 10.023L12.1275 11.9135L8.84594 10.023L12.1275 8.13254ZM8.66759 10.344L11.9491 12.2345V16.0154L8.66759 14.1249V10.344ZM12.3058 12.2345L15.5874 10.344V14.1249L12.3058 16.0154V12.2345ZM11.9491 4.24462V7.82935L8.3109 9.91599V14.1249L5.2077 15.9084V8.13254L11.9491 4.24462ZM5.38604 16.2294L8.48925 14.446L12.1275 16.5326L15.7657 14.4281L18.8689 16.2116L12.1275 20.1173L5.38604 16.2294Z" fill="var(--fill-0, white)"/>
</g>
</svg>
