<svg preserveAspectRatio="none" width="100%" height="100%" overflow="visible" style="display: block;" viewBox="0 0 38.5404 18.0129" fill="none" xmlns="http://www.w3.org/2000/svg">
<g id="Word Mark">
<path id="Vector" d="M6.58094 17.6027H0.338857C0.0713397 17.6027 0 17.5313 0 17.2638V15.6765C0 15.409 0.0713397 15.3377 0.338857 15.3377H1.92613V7.84719H0.42803C0.0713397 7.84719 0.0178356 7.79368 0.0178356 7.43699V6.01023C0.0178356 5.65354 0.0713397 5.60004 0.42803 5.60004H4.6013C4.95799 5.60004 5.0115 5.65354 5.0115 6.01023V15.3377H6.59877C6.86629 15.3377 6.93763 15.409 6.93763 15.6765V17.2638C6.91979 17.5135 6.84845 17.6027 6.58094 17.6027Z" fill="var(--fill-0, white)"/>
<path id="Vector_2" d="M3.42422 4.01277C2.33632 4.01277 1.42676 3.12104 1.42676 1.99747C1.42676 0.873891 2.31849 0 3.4599 0C4.52997 0 5.42169 0.927395 5.42169 1.99747C5.43952 3.12104 4.52996 4.01277 3.42422 4.01277Z" fill="var(--fill-0, white)"/>
<path id="Vector_3" d="M20.367 17.6027H17.353C17.0676 17.6027 17.032 17.5848 16.8715 17.353L12.6982 11.6638V15.3377H13.8217C14.0893 15.3377 14.1606 15.409 14.1606 15.6765V17.2638C14.1606 17.5313 14.0893 17.6027 13.8217 17.6027H8.38222C8.09687 17.6027 8.04336 17.5492 8.04336 17.2638V15.6765C8.04336 15.409 8.1147 15.3377 8.38222 15.3377H9.6128V2.44333H8.27521C8.0077 2.44333 7.93636 2.37199 7.93636 2.10447V0.517201C7.93636 0.249683 8.0077 0.178345 8.27521 0.178345H12.3593C12.6268 0.178345 12.6982 0.249683 12.6982 0.517201V10.3797L15.7835 7.77584H14.6956C14.4281 7.77584 14.3568 7.70451 14.3568 7.43699V5.93889C14.3568 5.67137 14.4281 5.60004 14.6956 5.60004H20.0817C20.3492 5.60004 20.4205 5.67137 20.4205 5.93889V7.52616C20.4205 7.79368 20.3492 7.86502 20.0817 7.86502H18.8154L15.3734 10.772L19.1721 15.3377H20.3849C20.6345 15.3377 20.7059 15.409 20.7059 15.6765V17.2638C20.688 17.5135 20.6167 17.6027 20.367 17.6027Z" fill="var(--fill-0, white)"/>
<path id="Vector_4" d="M30.283 12.4128H23.7556C23.8091 14.4995 24.6473 15.4804 26.4486 15.4804C27.3403 15.4804 28.3034 15.2128 29.2129 14.7313C29.3378 14.66 29.4626 14.6421 29.534 14.6421C29.6588 14.6421 29.7301 14.7135 29.8015 14.8561L30.4078 16.3186C30.4792 16.4612 30.4792 16.4969 30.4792 16.5861C30.4792 16.8536 30.283 16.9963 29.4805 17.3351C28.4104 17.7988 27.3225 18.0129 26.1276 18.0129C24.576 18.0129 23.3632 17.6027 22.5072 16.8179C21.3479 15.7479 20.688 13.9109 20.688 11.6994C20.688 7.75801 22.8103 5.18984 26.0027 5.18984C29.1773 5.18984 30.818 7.41915 30.818 11.8421C30.818 12.3058 30.6932 12.4128 30.283 12.4128ZM25.8065 7.38348C24.576 7.38348 24.0053 8.1682 23.7912 10.1478H27.5722C27.5365 8.15037 27.055 7.38348 25.8065 7.38348Z" fill="var(--fill-0, white)"/>
<path id="Vector_5" d="M33.1008 6.59877C32.8511 6.75928 32.4945 6.84845 32.1199 6.84845C31.1925 6.84845 30.7288 6.22424 30.7288 4.95799C30.7288 3.70958 31.2104 3.06754 32.1378 3.06754C32.4588 3.06754 32.7798 3.15671 33.0117 3.29939C33.1008 3.35289 33.1187 3.37072 33.1187 3.40639C33.1187 3.42423 33.1187 3.44206 33.1008 3.44206L32.9047 3.83442C32.8868 3.85226 32.8868 3.85226 32.869 3.85226C32.8511 3.85226 32.8333 3.85226 32.8155 3.83442C32.4945 3.65608 32.3696 3.62041 32.1556 3.62041C31.9594 3.62041 31.7632 3.70958 31.6741 3.85226C31.5314 4.06627 31.4601 4.44079 31.4601 4.92233C31.4601 5.36819 31.5314 5.76055 31.6206 5.95673C31.7097 6.13507 31.9416 6.24208 32.1734 6.24208C32.2983 6.24208 32.4231 6.22424 32.5301 6.15291V5.43953H32.1378C32.0486 5.43953 32.0308 5.42169 32.0308 5.33252V4.97583C32.0308 4.88666 32.0486 4.86882 32.1378 4.86882H33.0652C33.1722 4.86882 33.1722 4.88666 33.1722 4.97583V6.43826C33.19 6.52743 33.19 6.54527 33.1008 6.59877Z" fill="var(--fill-0, white)"/>
<path id="Vector_6" d="M34.8843 5.31469H34.6167V6.65227C34.6167 6.74145 34.5989 6.75928 34.5097 6.75928H34.0104C33.9034 6.75928 33.9034 6.74145 33.9034 6.65227V3.26372C33.9034 3.15671 33.9212 3.15671 34.0104 3.15671H34.8664C35.2944 3.15671 35.5085 3.19238 35.6868 3.29939C35.9365 3.4599 36.0792 3.76308 36.0792 4.13761C36.0792 4.85099 35.5976 5.31469 34.8843 5.31469ZM34.8129 3.69175H34.5989V4.72615H34.7416C35.2053 4.72615 35.3658 4.58347 35.3658 4.19111C35.3836 3.81659 35.2409 3.69175 34.8129 3.69175Z" fill="var(--fill-0, white)"/>
<path id="Vector_7" d="M37.399 6.83062C36.9709 6.83062 36.2932 6.63444 36.2932 6.50959C36.2932 6.49176 36.2932 6.47393 36.2932 6.45609L36.4716 6.01023C36.4894 5.97456 36.4894 5.95672 36.5251 5.95672C36.5429 5.95672 36.5429 5.95672 36.5786 5.97456C36.8996 6.1529 37.1493 6.22424 37.3811 6.22424C37.6843 6.22424 37.8627 6.06373 37.8627 5.79621C37.8627 5.67137 37.827 5.54653 37.7557 5.47519C37.6665 5.36819 37.5952 5.33252 37.1493 5.1185C36.5251 4.79748 36.3289 4.56563 36.3289 4.10194C36.3289 3.47773 36.7748 3.08537 37.4881 3.08537C37.8983 3.08537 38.4869 3.28155 38.4869 3.42422C38.4869 3.44206 38.4869 3.44206 38.469 3.45989L38.2729 3.85225C38.255 3.87009 38.2372 3.88792 38.2194 3.88792C38.2015 3.88792 38.2015 3.88792 38.0232 3.79875C37.8448 3.70958 37.6665 3.65607 37.506 3.65607C37.2206 3.65607 37.0244 3.79875 37.0244 4.04843C37.0244 4.17327 37.0958 4.28028 37.2206 4.38729C37.292 4.44079 37.3098 4.44079 37.7735 4.67264C38.3085 4.94016 38.5404 5.26118 38.5404 5.74271C38.5404 6.40259 38.0767 6.83062 37.399 6.83062Z" fill="var(--fill-0, white)"/>
</g>
</svg>
